<svg width="51" height="57" viewBox="0 0 51 57" fill="none" xmlns="http://www.w3.org/2000/svg">
<path d="M14.0622 8.68152H11.798C8.627 8.68152 7.04031 8.68152 5.82915 9.29864C4.76378 9.84148 3.89823 10.707 3.3554 11.7724C2.73828 12.9836 2.73828 14.5702 2.73828 17.7413V20.0055M14.0622 8.68152H36.7102M14.0622 8.68152V3.01953M36.7102 8.68152H38.9755C42.1465 8.68152 43.7298 8.68152 44.941 9.29864C46.0064 9.84148 46.8748 10.707 47.4176 11.7724C48.0342 12.9824 48.0342 14.5671 48.0342 17.732V20.0055M36.7102 8.68152V3.01953M2.73828 20.0055V44.9188C2.73828 48.0898 2.73828 49.6745 3.3554 50.8857C3.89823 51.951 4.76378 52.8181 5.82915 53.3609C7.03913 53.9774 8.6239 53.9774 11.7887 53.9774H38.9837C42.1485 53.9774 43.731 53.9774 44.941 53.3609C46.0064 52.8181 46.8748 51.951 47.4176 50.8857C48.0342 49.6757 48.0342 48.0932 48.0342 44.9284V20.0055M2.73828 20.0055H48.0342M36.7102 42.6535H36.7158L36.7157 42.6591L36.7102 42.659V42.6535ZM25.3862 42.6535H25.3919L25.3917 42.6591L25.3862 42.659V42.6535ZM14.0622 42.6535H14.0679L14.0678 42.6591L14.0622 42.659V42.6535ZM36.7157 31.3295V31.3351L36.7102 31.335V31.3295H36.7157ZM25.3862 31.3295H25.3919L25.3917 31.3351L25.3862 31.335V31.3295ZM14.0622 31.3295H14.0679L14.0678 31.3351L14.0622 31.335V31.3295Z" stroke="white" stroke-width="4.85313" stroke-linecap="square"/>
</svg>
