<svg width="54" height="52" viewBox="0 0 54 52" fill="none" xmlns="http://www.w3.org/2000/svg">
<path d="M36.2715 48.5958H18.0723M2.90625 29.7905V12.8045C2.90625 9.40701 2.90625 7.70698 3.56745 6.4093C4.14906 5.26783 5.07643 4.34046 6.21789 3.75886C7.51557 3.09766 9.21559 3.09766 12.6131 3.09766H41.7319C45.1294 3.09766 46.8258 3.09766 48.1234 3.75886C49.2649 4.34046 50.1954 5.26783 50.777 6.4093C51.4375 7.70571 51.4375 9.40368 51.4375 12.7946V29.7993C51.4375 33.1901 51.4375 34.8857 50.777 36.1821C50.1954 37.3235 49.2649 38.254 48.1234 38.8356C46.827 39.4962 45.1315 39.4962 41.7407 39.4962H12.6031C9.21227 39.4962 7.5143 39.4962 6.21789 38.8356C5.07643 38.254 4.14906 37.3235 3.56745 36.1821C2.90625 34.8844 2.90625 33.188 2.90625 29.7905ZM32.9957 21.1756L22.0761 13.8959V28.2126L32.9957 21.1756Z" stroke="white" stroke-width="4.85313" stroke-linecap="square"/>
</svg>
