<svg width="63" height="65" viewBox="0 0 63 65" fill="none" xmlns="http://www.w3.org/2000/svg">
<path d="M41.0604 49.4957V52.5289C41.0604 57.5545 36.9864 61.6286 31.9608 61.6286C26.9352 61.6286 22.8612 57.5545 22.8612 52.5289V49.4957M41.0604 49.4957H22.8612M41.0604 49.4957H51.9512C53.1114 49.4957 53.6943 49.4957 54.1642 49.3373C55.0616 49.0346 55.7638 48.3299 56.0665 47.4325C56.2256 46.9608 56.2256 46.376 56.2256 45.2066C56.2256 44.6948 56.225 44.439 56.185 44.195C56.1093 43.734 55.9304 43.2969 55.6579 42.9174C55.5139 42.7168 55.3309 42.5338 54.9701 42.173L53.7886 40.9915C53.4074 40.6103 53.1932 40.0932 53.1932 39.5541V28.2633C53.1932 16.5369 43.6872 7.03077 31.9608 7.0308C20.2345 7.03083 10.7284 16.5369 10.7284 28.2633V39.5542C10.7284 40.0933 10.5138 40.6103 10.1325 40.9915L8.9511 42.1729C8.58926 42.5348 8.40809 42.7166 8.26389 42.9175C7.99137 43.297 7.81087 43.734 7.7352 44.195C7.69516 44.439 7.69516 44.6949 7.69516 45.2067C7.69516 46.3761 7.69516 46.9607 7.85426 47.4324C8.15697 48.3298 8.86233 49.0346 9.75976 49.3373C10.2296 49.4957 10.8103 49.4957 11.9706 49.4957H22.8612M50.2163 4.03906C54.3998 7.19152 57.6955 11.3736 59.7826 16.1782M13.7069 4.03906C9.52343 7.19152 6.22769 11.3736 4.14062 16.1782" stroke="white" stroke-width="4.85313" stroke-linecap="square"/>
</svg>
